<svg height="512pt" viewBox="0 -30 512 511" width="512pt" xmlns="http://www.w3.org/2000/svg"><path d="m211.289062 192.050781c8.609376-9.710937 13.851563-22.476562 13.851563-36.445312 0-30.339844-24.683594-55.027344-55.023437-55.027344-30.339844 0-55.023438 24.6875-55.023438 55.027344 0 13.96875 5.242188 26.730469 13.851562 36.445312-23.300781 14.023438-38.921874 39.554688-38.921874 68.671875v71.632813h160.1875v-71.632813c-.003907-29.117187-15.625-54.648437-38.921876-68.671875zm-66.195312-36.445312c0-13.800781 11.222656-25.027344 25.023438-25.027344 13.796874 0 25.023437 11.226563 25.023437 25.027344 0 13.796875-11.226563 25.023437-25.023437 25.023437-13.800782 0-25.023438-11.226562-25.023438-25.023437zm75.113281 146.75h-100.183593v-41.632813c0-27.621094 22.472656-50.09375 50.09375-50.09375 27.621093 0 50.089843 22.472656 50.089843 50.09375zm0 0"/><path d="m512 272.308594v-271.808594h-210.144531v40.03125h-271.832031v321.871094h-30.023438v90.050781h512v-90.050781h-30.023438v-90.09375zm-180.144531-241.808594h150.144531v211.808594h-150.144531v-67.890625l-33.820313-33.816407 33.820313-33.820312zm150.144531 391.953125h-452v-30.050781h452zm-30.023438-60.050781h-391.953124v-291.871094h241.832031v23.824219l-46.246094 46.246093 46.246094 46.246094v85.460938h150.121093zm0 0"/><path d="m451.964844 182.261719h-30.035156v-61.664063h-60.039063v30h30.039063v31.664063h-30.039063v30h90.074219zm0 0"/><path d="m391.914062 60.546875h30.027344v30h-30.027344zm0 0"/></svg>